<svg id="圖層_1" data-name="圖層 1" xmlns="http://www.w3.org/2000/svg" xmlns:xlink="http://www.w3.org/1999/xlink" viewBox="0 0 841.89 595.28"><defs><style>.cls-1{fill:#f7f5be;}.cls-2{fill:#322e14;}.cls-3{fill:url(#字體漸層金);}.cls-4{fill:url(#字體漸層金-2);}.cls-5{fill:url(#字體漸層金-3);}.cls-6{fill:url(#字體漸層金-4);}.cls-7{fill:url(#字體漸層金-5);}.cls-8{fill:url(#字體漸層金-6);}.cls-9{fill:url(#字體漸層金-7);}.cls-10{fill:url(#字體漸層金-8);}.cls-11{fill:#fff;}.cls-12{fill:#59b53d;}.cls-13{font-size:55.77px;fill:#231815;font-family:MicrosoftJhengHeiRegular, Microsoft JhengHei;}.cls-14{letter-spacing:-0.04em;}</style><linearGradient id="字體漸層金" x1="520.3" y1="328.29" x2="642.01" y2="467.84" gradientUnits="userSpaceOnUse"><stop offset="0" stop-color="#c7a505"/><stop offset="0.06" stop-color="#c9a709"/><stop offset="0.13" stop-color="#cead15"/><stop offset="0.19" stop-color="#d7b72a"/><stop offset="0.26" stop-color="#e4c646"/><stop offset="0.32" stop-color="#f4d86a"/><stop offset="0.32" stop-color="#f5d96c"/><stop offset="0.55" stop-color="#fefdf0"/><stop offset="0.58" stop-color="#fdfbe8"/><stop offset="0.63" stop-color="#fcf5d4"/><stop offset="0.7" stop-color="#faecb2"/><stop offset="0.76" stop-color="#f7df83"/><stop offset="0.79" stop-color="#f5d96c"/><stop offset="0.82" stop-color="#eccf58"/><stop offset="0.87" stop-color="#dcbd34"/><stop offset="0.92" stop-color="#d1b01a"/><stop offset="0.97" stop-color="#c9a80b"/><stop offset="1" stop-color="#c7a505"/></linearGradient><linearGradient id="字體漸層金-2" x1="566.41" y1="288.07" x2="688.12" y2="427.62" xlink:href="#字體漸層金"/><linearGradient id="字體漸層金-3" x1="570.18" y1="284.78" x2="691.89" y2="424.33" xlink:href="#字體漸層金"/><linearGradient id="字體漸層金-4" x1="595.51" y1="262.69" x2="717.22" y2="402.24" xlink:href="#字體漸層金"/><linearGradient id="字體漸層金-5" x1="612.55" y1="247.83" x2="734.26" y2="387.38" xlink:href="#字體漸層金"/><linearGradient id="字體漸層金-6" x1="627.75" y1="234.57" x2="749.46" y2="374.13" xlink:href="#字體漸層金"/><linearGradient id="字體漸層金-7" x1="633.71" y1="229.37" x2="755.42" y2="368.93" xlink:href="#字體漸層金"/><linearGradient id="字體漸層金-8" x1="638.6" y1="225.11" x2="760.31" y2="364.66" xlink:href="#字體漸層金"/></defs><title>工作區域 3</title><rect class="cls-1" x="-13.93" y="-19.67" width="449.09" height="635.34"/><rect class="cls-2" x="36.94" y="159.04" width="778.59" height="389.29"/><path class="cls-3" d="M611.24,418.46a3.89,3.89,0,0,1-.64-.77c1.8-3.35,1.93-3.74,1.93-6.18,0-9.78-15.83-19.05-34.1-19.05-25.87,0-47.36,19.82-71,19.82-25.48,0-41.31-19.95-41.31-44.65,0-29.73,25.23-57.4,58-57.4,12,0,25,2.45,25.35,2.06,0,0,22.14-13.13,41.83-13.13,10.29,0,13,3.74,13,7.47,0,5.66-6.57,11.71-20.72,11.71-7.34,0-24.71-2.45-24.71-2.45a140.72,140.72,0,0,0-16.6,16.22c-9.65,11.58-16.35,25.35-16.6,34.49a10.51,10.51,0,0,0,2.83,7.72c-1.68-11.84,11.32-41.44,34.1-41.44,6.31,0,10.17,4.5,10.17,11.84,0,21-24.71,39.76-37.84,37.32a10.78,10.78,0,0,0,8.11,4c13.13,0,26.25-18,26.25-18l1,1.16S557.71,387.83,543,387.83c-7.72,0-12.48-7.21-12.48-7.21s-12.23-4.76-12.23-22.77c0-24.07,25.87-42,29.47-44,0-.38-15.06-2.18-23.68-2.18-32.17,0-56.62,28.05-56.62,56,0,23.42,15.06,43.23,39.89,43.23,21.37,0,45.94-19.81,71-19.81,19.69,0,35.65,8.62,35.65,20.46C614.08,414.6,613.17,415.75,611.24,418.46ZM559.9,335.2c-13.64,0-29.34,21.36-29.34,36.16,0,3,.25,3.73,1.41,6.69,2.83,1.93,3.73,1.8,5.28,1.8,14.93,0,31.14-24.84,31.14-36C568.39,337.26,564.66,335.2,559.9,335.2Zm31.4-34.62c-11.58,0-29.73,14-29.73,14,8.75,1.28,18.4,2.31,22,2.31,7.72,0,19.3-1.8,19.3-10.29C602.88,302.12,598,300.58,591.3,300.58Z"/><path class="cls-4" d="M599,346c-3,6.56-10.17,19.94-10.17,28.95a3,3,0,0,0,2.71,3.09c6.94,0,18.65-13.51,26.25-28.18l1,.9c-9.78,17.63-18.66,29.21-30.76,30-4.63.26-7.72-4.12-7.72-10.81,0-21.62,40.41-76.05,52-76.05,2.06,0,4,2.31,4,4.63C636.21,306.11,625,330.82,599,346Zm30-49.42c-4.24,0-21.49,29.86-27.28,45.17,16.09-9.39,29.09-36,29.09-42.47C630.81,297.88,630,296.59,629,296.59Z"/><path class="cls-5" d="M650.49,362.61a34.07,34.07,0,0,1-5.79,1.93c-3.09,5.14-13.38,16.21-25.48,16.21-6.05,0-9.91-6.18-9.91-12,0-14.67,14.93-28.56,29.22-28.56,5.92,0,10.42,5.14,10.42,12.09,0,4.51-2.19,8-3.09,10.3a17.91,17.91,0,0,0,3.86-1.42c6.95-3.22,12.23-8.11,15.57-11.32l1,.9C663.23,354.5,657.19,358.87,650.49,362.61Zm-12.35-20.85c-7.72,0-21.36,24.06-21.36,32.94,0,3,.64,4.38,2.44,4.38,4.76,0,9.27-4.38,16-15.57-5.15-1.68-7.08-3.86-7.08-6.31a3.89,3.89,0,0,1,4-4.12,2.44,2.44,0,0,1,2.7,2.71c0,2.31-3.47,2.57-3.47,2.57.64,1.93,3.47,3.6,4.89,3.86,4-8.49,5-12.74,5-17.24C641.23,342.92,640.2,341.76,638.14,341.76Z"/><path class="cls-6" d="M669.54,380.75c-4.25,0-6.82-3.47-6.95-9.52-.13-5.66,10.81-18.79,10.81-22.39,0-.77,0-.9-.52-.9-2.7,0-3.47,4-8.1,4-2.06,0-3.22-2.06-3.22-4.89,0-4.25,4-9.78,7.46-9.78a3,3,0,0,1,3.09,3c0,2.31-1.93,5.91-4.5,8.87,6.56-5.4,10.29-8.87,13.51-8.87,2.7,0,4.5,2.44,4.5,5s-1.41,4.12-2.7,6.31l-10.16,17.37c-1.55,2.58-2.45,4.51-2.45,5.28a3.14,3.14,0,0,0,3.35,3.47c8.75,0,20.07-14.28,29.47-27.79l1,.9C687.3,376.25,678.42,380.75,669.54,380.75ZM669,339.19c-2.57,0-5.27,5.53-5.27,7.85,0,1.67.64,2.18,1.41,2.18,2.45-3.09,5-7.07,5-8.88A1.07,1.07,0,0,0,669,339.19Z"/><path class="cls-7" d="M700.42,380.75c-4.5,0-8-2.7-8-7.72,0-8.75,8.37-20.72,12.87-28.95.9-1.68,1.16-2.71,3.48-2.71,3.86,0,2.57,1.16,4.37,1.16,1,0,3.35-3.47,4.89-3.86l-16.34,31.14a11.37,11.37,0,0,0-1.29,4.89,3,3,0,0,0,3.09,3.35c4.89,0,26.77-24.45,29.86-28.18l1,.9C724.23,362.86,708.66,380.75,700.42,380.75Z"/><path class="cls-8" d="M738.25,373.93c-3,3.48-8,7.08-14.41,7.08-6.69,0-10.16-3.6-10.16-9.14,0-3.73,2.44-7.2,6.17-7.2s6.44,4.63,9.14,5.66c3.47-2.45,4.89-8.5,4.89-11.33s-2.45-7.33-2.45-12.48c0-5.4,2.06-12.35,6.82-12.35,1.93,0,3.22.77,3.22,2.31,0,3.86-2.31,6.95-4,9.91,0,0,3.86,8.5,3.86,14,0,4.5-1.41,10.29-2.31,11.71,8.62-1.93,15.05-4.12,26.12-22.26l1,.9C754.21,370.71,746.1,372.77,738.25,373.93ZM720.75,367a2.46,2.46,0,0,0-2.31,2.58c0,2.31,1.93,3.21,4.11,3.6s4.38-.13,5.15-1.54C724.61,370.2,722.94,367,720.75,367Zm17.63-31.66c-.9,0-2.31,2.45-2.44,5.41a9.42,9.42,0,0,0,.77,4.12c2.7-3.86,3.22-5.79,3.22-8.11A1.34,1.34,0,0,0,738.38,335.32Z"/><path class="cls-9" d="M729,318.57s-4.33,2.54-6.52,12.69c0,0-4,6.29-10.29,6,0,0-4.87-.9-7.58-8.22a8.44,8.44,0,0,1-.32-4.24c.5-2,3.85-5.1,4.61-7.82,0,0,1.49-3.08-1.3-3.71-1.5-.34,1-1.34,2.59,0a5.05,5.05,0,0,1,1.34,2.41c.5,1.84,1.88,0,3.22,1.61,0,0,2.59,1.88-.72,6.52s-3.54,3.71-4.15,5.95c0,0-.36,3.12.8,4.64,0,0-1.87-4.11,4.11-10.18C714.81,324.2,721,315.22,729,318.57Z"/><path class="cls-10" d="M713.35,314.5s7.13-4.1,9.81,2.27c0,0-3.77-.76-6.56,3.62C716.6,320.39,717.35,317.52,713.35,314.5Z"/><path class="cls-11" d="M387.61,313.91a43.44,43.44,0,0,1-11.15,4.83c-.14-.51-.29-1-.44-1.52A49,49,0,0,0,387.61,313.91Z"/><path class="cls-11" d="M378.34,386.05l2.06,1.2-2.11-1A2,2,0,0,0,378.34,386.05Z"/><path class="cls-12" d="M381.58,356.17a138.73,138.73,0,0,1-3.24,29.88c-4.59-2.68-9.12-5.44-13.7-8.14-5.26-3.12-10.53-6.21-15.88-9.19-1.35-.74-2.7-1.48-4.07-2.19a44.5,44.5,0,0,0-4.29-2,17.27,17.27,0,0,0-4.82-1.17,11.71,11.71,0,0,0-2.58.05l-.28,0-.33.06-.67.13a12.41,12.41,0,0,0-1.23.35,19.15,19.15,0,0,0-4.44,2.2c-1.34.88-2.59,1.84-3.79,2.81l-3.56,2.86c-1.19.94-2.39,1.88-3.6,2.8q-3.62,2.76-7.31,5.43c-1.23.86-2.5,1.79-3.7,2.55a23.2,23.2,0,0,1-3.83,2,10.14,10.14,0,0,1-3.94.81,6,6,0,0,1-.95-.07c-.16,0-.3-.08-.46-.11a2.54,2.54,0,0,1-.45-.13,4.52,4.52,0,0,1-.84-.38l-.37-.2-.46-.34a1.58,1.58,0,0,1-.18-.15l-.15-.14a3.42,3.42,0,0,1-.33-.33,5.74,5.74,0,0,1-.6-.76,10.28,10.28,0,0,1-1-1.8,28.4,28.4,0,0,1-1.25-4.22,27.05,27.05,0,0,0-1.32-4.55,14.22,14.22,0,0,0-1.11-2.16,10.66,10.66,0,0,0-1.54-1.95,6.24,6.24,0,0,0-4.65-1.95,19.63,19.63,0,0,0-2.34.36,3.74,3.74,0,0,1-1,.06l-.24,0-.2-.05-.14,0-.07,0,0,0-.2-.09a3.72,3.72,0,0,1-1.4-1.41,7.69,7.69,0,0,1-.48-.95l-.2-.54-.1-.26-.08-.26a11.86,11.86,0,0,1-.47-4.41,13,13,0,0,1,1.14-4.38,12.37,12.37,0,0,1,2.69-3.75h0l.08,0a41.21,41.21,0,0,0-6.44,2.33,12.06,12.06,0,0,1-3,.75l-.34,0h-1.15l-.27-3.24-.32-3.38q-.35-3.39-.77-6.76c-.21-1.71-.44-3.42-.68-5.12-.06-.42-.12-.84-.19-1.26l-.34-2.35-1.81,1.41a12.27,12.27,0,0,1-2.74,1.67,10.87,10.87,0,0,1-3.14.77l-.8.07-.41,0-.42,0c-.55,0-1.11,0-1.67.06-1.12,0-2.25,0-3.37,0-2.11,0-4.21-.11-6.34-.29A140.52,140.52,0,0,0,250,322.24a42.68,42.68,0,0,0,2.27-7.14,31.62,31.62,0,0,0,.73-7.52v-.94l0-.92-.1-1.87c-.09-1.23-.18-2.47-.31-3.71-.25-2.47-.6-4.94-1.05-7.39-.32-1.7-.68-3.4-1.11-5.09,0-.13,0-.27.05-.42l-.11.16c-.17-.65-.34-1.29-.52-1.93s-.34-1.21-.53-1.8l-.54-1.76c-.19-.6-.33-1.16-.5-1.73s-.29-1.17-.43-1.75A104.48,104.48,0,0,1,245.87,264l-.18-1.84-.1-.93,0-.42,0-.46-.06-.92c0-.3,0-.57,0-.85,0-.56,0-1.14,0-1.72a27.34,27.34,0,0,1,1.29-6.86c0-.15.1-.3.16-.44a41.31,41.31,0,0,1,17.85,4.58,57,57,0,0,1,8.68,5.29,81,81,0,0,1,7.8,6.58c5,4.71,9.49,9.93,14.12,15.17,2.31,2.61,4.66,5.26,7.08,7.81s5,5.07,7.56,7.48a110.78,110.78,0,0,0,16.91,13.06,81,81,0,0,0,9.47,5.06c.81.39,1.64.73,2.47,1.07l1.24.5.08,0,.08,0h0l.15.06.31.11.62.22c1.6.6,3.38,1.15,5.11,1.65a61,61,0,0,0,21.22,2,49.06,49.06,0,0,0,8.77-1.6A138.8,138.8,0,0,1,381.58,356.17Z"/><path class="cls-11" d="M378.34,386.05a2,2,0,0,1,0,.24c-4.84-2.25-9.6-4.68-14.35-7.1-5.44-2.78-10.84-5.63-16.27-8.4-1.36-.69-2.71-1.37-4.08-2A43.81,43.81,0,0,0,339.5,367a14.83,14.83,0,0,0-4.11-.91,9.18,9.18,0,0,0-2,.08l-.28,0a1.44,1.44,0,0,0-.24.05l-.46.09c-.33.1-.66.17-1,.3a25,25,0,0,0-7.28,4.62c-1.16,1-2.36,2-3.56,2.9s-2.41,1.91-3.63,2.84q-3.66,2.81-7.42,5.46c-1.27.88-2.48,1.76-3.87,2.62a25.92,25.92,0,0,1-4.35,2.16,12.91,12.91,0,0,1-5,.92,9,9,0,0,1-1.36-.15c-.22,0-.44-.11-.67-.16a5.6,5.6,0,0,1-.66-.21,7.83,7.83,0,0,1-1.24-.59l-.3-.18-.15-.09-.07-.05h0l-.08-.05,0,0-.45-.35a2.39,2.39,0,0,1-.26-.23l-.27-.25c-.09-.09-.19-.17-.27-.26l-.22-.26a8.35,8.35,0,0,1-.81-1.07,12.3,12.3,0,0,1-1.14-2.3A29,29,0,0,1,287,377.3a24.93,24.93,0,0,0-1-4.25,10.5,10.5,0,0,0-2-3.54,4.45,4.45,0,0,0-3.22-1.6,16.59,16.59,0,0,0-2.16.22,5.23,5.23,0,0,1-1.37,0l-.36-.06-.19-.05-.09,0h-.05l-.06,0h0l-.14-.05-.16-.06-.36-.19a5,5,0,0,1-1.84-2,5.12,5.12,0,0,1-.28-.58l-.12-.29-.06-.15,0-.07,0-.07v0l-.16-.55-.09-.27c0-.1,0-.2-.07-.31l-.13-.62c-.05-.2-.06-.4-.09-.6a9.87,9.87,0,0,1-.1-1.21c0-.41,0-.82,0-1.22s.07-.8.14-1.2A13.08,13.08,0,0,1,274.5,354a12.36,12.36,0,0,1,3.08-3.55,12.37,12.37,0,0,0-2.69,3.75,13,13,0,0,0-1.14,4.38,11.86,11.86,0,0,0,.47,4.41l.08.26.1.26.2.54a7.69,7.69,0,0,0,.48.95,3.72,3.72,0,0,0,1.4,1.41l.2.09,0,0,.07,0,.14,0,.2.05.24,0a3.74,3.74,0,0,0,1-.06,19.63,19.63,0,0,1,2.34-.36,6.24,6.24,0,0,1,4.65,1.95,10.66,10.66,0,0,1,1.54,1.95,14.22,14.22,0,0,1,1.11,2.16,27.05,27.05,0,0,1,1.32,4.55,28.4,28.4,0,0,0,1.25,4.22,10.28,10.28,0,0,0,1,1.8,5.74,5.74,0,0,0,.6.76,3.42,3.42,0,0,0,.33.33l.15.14a1.58,1.58,0,0,0,.18.15l.46.34.37.2a4.52,4.52,0,0,0,.84.38,2.54,2.54,0,0,0,.45.13c.16,0,.3.09.46.11a6,6,0,0,0,.95.07,10.14,10.14,0,0,0,3.94-.81,23.2,23.2,0,0,0,3.83-2c1.2-.76,2.47-1.69,3.7-2.55q3.69-2.67,7.31-5.43c1.21-.92,2.41-1.86,3.6-2.8l3.56-2.86c1.2-1,2.45-1.93,3.79-2.81a19.15,19.15,0,0,1,4.44-2.2,12.41,12.41,0,0,1,1.23-.35l.67-.13.33-.06.28,0a11.71,11.71,0,0,1,2.58-.05,17.27,17.27,0,0,1,4.82,1.17,44.5,44.5,0,0,1,4.29,2c1.37.71,2.72,1.45,4.07,2.19,5.35,3,10.62,6.07,15.88,9.19C369.22,380.61,373.75,383.37,378.34,386.05Z"/><path class="cls-11" d="M376,317.22c.15.51.3,1,.44,1.52a49.06,49.06,0,0,1-8.77,1.6,61,61,0,0,1-21.22-2c-1.73-.5-3.51-1.05-5.11-1.65l-.62-.22-.31-.11-.15-.06h0l-.08,0-.08,0-1.24-.5c-.83-.34-1.66-.68-2.47-1.07a81,81,0,0,1-9.47-5.06A110.78,110.78,0,0,1,310,296.48q-3.9-3.62-7.56-7.48c-2.42-2.55-4.77-5.2-7.08-7.81-4.63-5.24-9.16-10.46-14.12-15.17a81,81,0,0,0-7.8-6.58,57,57,0,0,0-8.68-5.29,41.31,41.31,0,0,0-17.85-4.58l.09-.3q.3,0,.6-.06c.86-.07,1.73-.19,2.6-.18l1.32,0,1.31.05c.88,0,1.75.13,2.63.22a42.15,42.15,0,0,1,10.27,2.63,55,55,0,0,1,9.53,4.83,75.33,75.33,0,0,1,8.58,6.37,185.34,185.34,0,0,1,15,14.91c2.38,2.56,4.72,5.1,7.15,7.59s4.85,4.88,7.38,7.22a123.74,123.74,0,0,0,16.06,12.72,85.05,85.05,0,0,0,8.82,5.09c.75.39,1.52.74,2.29,1.09l1.16.54.07,0h.05l.13.06.3.12.6.25c1.65.7,3.17,1.24,4.76,1.79a64.11,64.11,0,0,0,20,3.35A53.07,53.07,0,0,0,376,317.22Z"/><path class="cls-11" d="M369,240a40.27,40.27,0,0,1,4.49,5.94,41,41,0,0,0-4.79-5.62c-.44-.44-.91-.83-1.36-1.25l-.69-.61c-.23-.2-.47-.39-.71-.58l-1.44-1.15-1.5-1.07c-.25-.17-.49-.36-.75-.52l-.77-.5c-.52-.33-1-.67-1.55-1-1.07-.6-2.11-1.24-3.21-1.79-2.15-1.15-4.39-2.12-6.64-3.06a100.49,100.49,0,0,0-14-4.37,132.89,132.89,0,0,0-14.41-2.55,140.2,140.2,0,0,0-29.17-.58,74.05,74.05,0,0,0-10.77,1.81c-1.85-.54-3.73-1-5.62-1.5a75.6,75.6,0,0,1,16.12-3.13,136.1,136.1,0,0,1,29.72,1.06,131.89,131.89,0,0,1,14.59,3,97.19,97.19,0,0,1,14.06,4.92,71.64,71.64,0,0,1,6.65,3.39c1.09.6,2.12,1.31,3.18,2,.51.34,1,.71,1.53,1.07l.76.54c.25.18.49.38.73.57l1.47,1.16,1.4,1.24c.23.21.47.41.69.62l.66.66C368.09,239.1,368.54,239.52,369,240Z"/><path class="cls-12" d="M376,317.22a53.07,53.07,0,0,1-8.44.67,64.11,64.11,0,0,1-20-3.35c-1.59-.55-3.11-1.09-4.76-1.79l-.6-.25-.3-.12-.13-.06h-.05l-.07,0-1.16-.54c-.77-.35-1.54-.7-2.29-1.09a85.05,85.05,0,0,1-8.82-5.09,123.74,123.74,0,0,1-16.06-12.72c-2.53-2.34-5-4.75-7.38-7.22s-4.77-5-7.15-7.59a185.34,185.34,0,0,0-15-14.91,75.33,75.33,0,0,0-8.58-6.37,55,55,0,0,0-9.53-4.83,42.15,42.15,0,0,0-10.27-2.63c-.88-.09-1.75-.2-2.63-.22l-1.31-.05-1.32,0c-.87,0-1.74.11-2.6.18q-.3,0-.6.06a41.71,41.71,0,0,1,2.58-5.77c.57-1.05,1.16-2.09,1.79-3.12l.48-.77.48-.67.27-.37c.09-.12.18-.21.27-.31l.53-.59c.16-.2.4-.4.6-.6l.63-.6c.41-.41.89-.77,1.33-1.16s.93-.73,1.39-1.1,1-.72,1.45-1.05l1.48-1,1.53-.94.76-.47.79-.44,1.57-.87a73.34,73.34,0,0,1,16.79-6.33A138.81,138.81,0,0,1,376,317.22Z"/><path class="cls-2" d="M363.94,379.19c4.75,2.42,9.51,4.85,14.35,7.1a138.78,138.78,0,0,1-89.72,100.77l-.12-.34c-4.83-3.54-9.92-6.71-15-9.82s-10.23-6.14-15.33-9.22-10.16-6.19-15.05-9.5l-1.82-1.26c-.61-.41-1.18-.85-1.77-1.28-1.18-.82-2.34-1.78-3.51-2.7l-.22-.18-.18-.15-.44-.37-.87-.71-1.74-1.42-3.46-2.81c-2.3-1.88-4.55-3.78-6.68-5.78-1.05-1-2.1-2-3.06-3.11-.5-.52-.95-1.08-1.42-1.63-.24-.27-.44-.55-.66-.83s-.44-.54-.65-.85a20.87,20.87,0,0,1-3.75-7.47,18.47,18.47,0,0,1-.27-4.19c0-1.46.11-3,0-4.56,0-.39-.06-.78-.12-1.2l0-.3,0-.28-.05-.27,0-.17,0-.15a13.73,13.73,0,0,0-.72-2.28,19.23,19.23,0,0,0-2.33-4.05c-1.83-2.48-4-4.57-5.92-6.79a58.36,58.36,0,0,1-9.54-15l-.41-.11a3.39,3.39,0,0,1,.15-.41c1.78-.27,3.55-.64,5.29-1.08A56.76,56.76,0,0,0,212,381.5a33.37,33.37,0,0,0,6-4.06,18.32,18.32,0,0,0,1.35-1.29c.41-.47.85-.92,1.21-1.42s.73-1,1.08-1.52c.17-.26.32-.53.47-.8s.3-.54.44-.81A18.4,18.4,0,0,0,224,358.48l.21-.23a5.55,5.55,0,0,0,1.56-2.75,6.05,6.05,0,0,1-2.05,2.1h0l-.05,0c-.88.59-1.76,1.18-2.66,1.72a50.62,50.62,0,0,1-5.54,2.93A48.46,48.46,0,0,1,203.67,366l-1.54.23-1.51.19c-.5.06-1.06.09-1.59.13s-1,.07-1.56.1a22.66,22.66,0,0,0-3.38.37,11.6,11.6,0,0,0-3.31,1.25,16.88,16.88,0,0,0-5,4.51,17.16,17.16,0,0,0-1.38,2.09,17.26,17.26,0,0,0-.68-3.55,22.14,22.14,0,0,0-3.51-6.85,27.32,27.32,0,0,0-5.47-5.43c-.51-.4-1.06-.74-1.59-1.1s-1.13-.67-1.7-1l-.43-.25-.41-.2-.83-.4-.21-.1-.1-.05h0l-.06,0h0l0,0-.46-.18-.92-.36a28.94,28.94,0,0,0-7.55-1.48,55.2,55.2,0,0,0-7.5,0c-4.21.27-8.32.88-12.46,1.47a28.75,28.75,0,0,0-4.12.57c.77-.09,1.55-.17,2.31-.22l1.42.14,1.86.13c.5,0,1,0,1.52.06a8.94,8.94,0,0,1,1.26.44,5.62,5.62,0,0,1,2.08,1.57l.21.26.22.3c.16.21.32.4.48.59.32.38.63.74.91,1.1a7.39,7.39,0,0,1,.74,1.11l.7,1.28c.93,1.69,1.85,3.38,2.59,5.1.36.87.69,1.75,1,2.64.14.45.27.91.39,1.34s.22.92.32,1.39c.4,1.86.72,3.81,1.34,5.76a13.64,13.64,0,0,0,1.26,2.91c.14.23.31.46.47.7s.18.22.27.33l.14.17.06.08,0,0,.06.06.51.52.6.56a39.85,39.85,0,0,0,4.9,3.48l2.48,1.53,1.23.75.6.39.56.36.3.21a2.37,2.37,0,0,1,.27.2c.16.13.32.24.48.39a10.16,10.16,0,0,1,.95.91,12.25,12.25,0,0,1,1.59,2.07,8.17,8.17,0,0,1,1,2.23c0,.09,0,.18.05.27l0,.13v.12a1.69,1.69,0,0,1,0,.25v1.81c0,1.89-.07,3.81-.15,5.74s-.17,3.89-.16,5.87a37.26,37.26,0,0,0,.45,6c.09.5.17,1,.29,1.5s.21,1,.36,1.49.25,1,.43,1.46l.24.72.12.36.06.19.09.21a7.81,7.81,0,0,0,.31.72l.2.4.19.36a15.56,15.56,0,0,0,.85,1.36c.6.86,1.25,1.64,1.88,2.4s1.28,1.47,1.87,2.19c.29.36.58.72.84,1.08l.46.61.44.57c.54.77,1.26,1.56,1.93,2.33.34.39.69.73,1,1.1s.69.72,1.06,1.06l1.09,1c.37.34.75.65,1.12,1,.75.66,1.54,1.26,2.3,1.89,1.57,1.19,3.16,2.35,4.78,3.45,3.23,2.21,6.52,4.26,9.72,6.4,1.58,1.07,3.2,2.16,4.67,3.32.75.6,1.55,1.18,2.23,1.81l1.07.93.53.47.52.49a99.51,99.51,0,0,1,7.9,8.38c2.49,2.93,4.9,6,7.24,9,4.69,6.16,9.14,12.52,13.77,18.74v.74H243A138.55,138.55,0,1,1,276.09,221.6a74,74,0,0,0-12.6,5.2l-1.65.92-.82.46-.8.5-1.61,1-1.56,1.08c-.53.35-1,.74-1.53,1.12s-1,.76-1.49,1.19l-.73.62a8.8,8.8,0,0,0-.72.65l-.7.67a9.58,9.58,0,0,0-.69.72l-.69.78c-.1.13-.24.27-.32.39l-.27.37-.27.38-.13.19-.07.09-.06.09h0l0,0,0,.05-.48.81c-.65,1.07-1.27,2.16-1.86,3.28a42.16,42.16,0,0,0-3,7l0,.1a29.11,29.11,0,0,0-1.29,7.47l0,1c0,.32,0,.66,0,1s0,.67,0,1l.08.92,0,.49.05.46.11.91.21,1.83a102.39,102.39,0,0,0,2.28,14.7c.16.61.32,1.21.5,1.82s.36,1.22.56,1.79l.59,1.75c.2.57.37,1.15.56,1.73.37,1.21.71,2.42,1,3.65-.25.41-.51.81-.77,1.2a15.57,15.57,0,0,1-2.61,3.14l-.36.3-.2.16-.23.16a8.16,8.16,0,0,1-.82.51,9,9,0,0,1-1.87.73,10.71,10.71,0,0,1-4.33.21,6.63,6.63,0,0,0,4.54,1.33,7.53,7.53,0,0,0,2.42-.55,6.86,6.86,0,0,0,1.14-.59l.23-.15.24-.17.52-.41a10.15,10.15,0,0,0,2.62-3.73c.1.42.19.84.29,1.27.51,2.38.92,4.78,1.25,7.2s.58,4.85.72,7.29A35.55,35.55,0,0,1,249.24,322c-1.59,4.49-3.82,8.76-5.82,13.1l-.45,0,.4.14c0,.09-.08.17-.11.26l.13-.25a37.44,37.44,0,0,0,6.24,1.63c1.14.21,2.28.37,3.43.5.58.06,1.15.11,1.74.15l.42,0,.46,0c.3,0,.6,0,.9,0a12.65,12.65,0,0,0,3.93-.63,12.29,12.29,0,0,0,1.41-.58c.15,1.37.31,2.73.48,4.1.27,2.25.58,4.5.91,6.74l.52,3.36.28,1.68.14.84.07.42a4.47,4.47,0,0,0,.12.54,3,3,0,0,0,.28.66,2.56,2.56,0,0,0,.26.34l.08.08h0l0,0h0l0,0,.05,0,.11.09a2.38,2.38,0,0,0,1.33.35h.53l.42,0,.21,0,.24,0,.48-.09a11.9,11.9,0,0,0,3.32-1.36c2-1.16,3.68-2.58,5.74-3.62h0A12.36,12.36,0,0,0,274.5,354a13.08,13.08,0,0,0-1.57,4.48c-.07.4-.1.8-.14,1.2s0,.81,0,1.22a9.87,9.87,0,0,0,.1,1.21c0,.2,0,.4.09.6l.13.62c0,.11,0,.21.07.31l.09.27.16.55v0l0,.07,0,.07.06.15.12.29a5.12,5.12,0,0,0,.28.58,5,5,0,0,0,1.84,2l.36.19.16.06.14.05h0l.06,0h.05l.09,0,.19.05.36.06a5.23,5.23,0,0,0,1.37,0,16.59,16.59,0,0,1,2.16-.22,4.45,4.45,0,0,1,3.22,1.6,10.5,10.5,0,0,1,2,3.54,24.93,24.93,0,0,1,1,4.25,29,29,0,0,0,1.22,4.64,12.3,12.3,0,0,0,1.14,2.3,8.35,8.35,0,0,0,.81,1.07l.22.26c.08.09.18.17.27.26l.27.25a2.39,2.39,0,0,0,.26.23l.45.35,0,0,.08.05h0l.07.05.15.09.3.18a7.83,7.83,0,0,0,1.24.59,5.6,5.6,0,0,0,.66.21c.23.05.45.13.67.16a9,9,0,0,0,1.36.15,12.91,12.91,0,0,0,5-.92,25.92,25.92,0,0,0,4.35-2.16c1.39-.86,2.6-1.74,3.87-2.62q3.76-2.66,7.42-5.46,1.83-1.39,3.63-2.84c1.2-.95,2.4-1.94,3.56-2.9a25,25,0,0,1,7.28-4.62c.32-.13.65-.2,1-.3l.46-.09a1.44,1.44,0,0,1,.24-.05l.28,0a9.18,9.18,0,0,1,2-.08,14.83,14.83,0,0,1,4.11.91,43.81,43.81,0,0,1,4.09,1.76c1.37.66,2.72,1.34,4.08,2C353.1,373.56,358.5,376.41,363.94,379.19Z"/><path class="cls-12" d="M288.45,486.72l.12.34a138.5,138.5,0,0,1-45.33,7.66V494c-4.12-6.57-8.18-13.19-12.58-19.6-2.21-3.21-4.51-6.37-6.93-9.43a92.71,92.71,0,0,0-7.79-8.82c-.18-.18-.34-.36-.52-.53l-.55-.51-1.11-1c-.73-.71-1.49-1.28-2.24-1.9-1.55-1.3-3.13-2.4-4.74-3.54-3.2-2.25-6.45-4.35-9.59-6.56q-2.37-1.65-4.6-3.41c-.73-.61-1.48-1.19-2.18-1.82l-1.06-.94-1-1c-.34-.32-.66-.66-1-1s-.66-.67-1-1c-.58-.69-1.19-1.34-1.77-2.15l-.44-.57-.41-.57c-.31-.42-.63-.82-1-1.21-.64-.78-1.28-1.51-1.9-2.23a16.69,16.69,0,0,1-2.95-4.43l0-.09v0h0l0-.16-.11-.33-.23-.65c-.15-.44-.26-.89-.39-1.33s-.22-.89-.33-1.34-.19-.9-.27-1.35a58.2,58.2,0,0,1-.36-11.33c0-1.94.09-3.89.06-5.88l0-1.45v-.37a3.89,3.89,0,0,0,0-.47,3.47,3.47,0,0,0-.06-.45c0-.14-.06-.3-.1-.44a10.56,10.56,0,0,0-1.37-3,15.16,15.16,0,0,0-2-2.45,11.66,11.66,0,0,0-1.16-1.06c-.2-.17-.43-.34-.65-.51l-.62-.41-.66-.41-.63-.38-1.27-.73-2.51-1.45a39.69,39.69,0,0,1-4.71-3.13l-.49-.43-.53-.5-.19-.21-.21-.24c-.12-.17-.25-.34-.37-.52a12.24,12.24,0,0,1-1.15-2.45c-.63-1.75-1-3.64-1.52-5.54a29.12,29.12,0,0,0-2-5.56A56.37,56.37,0,0,0,151,362l-.78-1.23a8.2,8.2,0,0,0-.89-1.21c-.33-.37-.68-.72-1-1.06-.16-.18-.33-.35-.48-.53l-.23-.28-.26-.27a6.05,6.05,0,0,0-2-1.41h.18c2.46,0,4.91,0,7.33.12s4.83.18,7.18.46a31.11,31.11,0,0,1,6.82,1.48l.79.31.4.15h.06l.11.05.2.1.84.39.41.19.38.21c.49.28,1,.51,1.49.84s1,.6,1.48.94a29.44,29.44,0,0,1,5.3,4.61,23.9,23.9,0,0,1,4,5.88,19.79,19.79,0,0,1,1.46,4.19,16.84,16.84,0,0,0-1,2.56c.37-.57.76-1.13,1.17-1.66.11.64.2,1.29.26,1.95a15.48,15.48,0,0,0,.21-2.55,25.21,25.21,0,0,1,2.38-2.56,18.34,18.34,0,0,1,4.95-3.39,10.06,10.06,0,0,1,2.71-.76,24,24,0,0,1,3-.13c.55,0,1.07,0,1.66,0s1.06,0,1.63-.08,1.13-.1,1.68-.18,1.1-.15,1.65-.24a36.88,36.88,0,0,0,12.42-4.53,33.25,33.25,0,0,0,5.33-3.84c.67-.57,1.29-1.18,1.9-1.81,0,.21,0,.42,0,.62,0,.56-.05,1.13-.08,1.7a22.78,22.78,0,0,1-.56,3.32,20.76,20.76,0,0,1-2.58,6.08,7.26,7.26,0,0,1-.45.68c-.16.22-.3.45-.47.67-.34.42-.66.86-1,1.25s-.74.77-1.12,1.16-.8.71-1.23,1.06a39.59,39.59,0,0,1-5.66,3.62,87.15,87.15,0,0,1-12.52,5.66,112.7,112.7,0,0,1-13.42,3.85c.57,0,1.13,0,1.7,0v.44a16.86,16.86,0,0,0-3.27,6.14,21.34,21.34,0,0,0-.71,3.45c0,.3-.06.59-.08.89l0,.44,0,.22v.24c0,.29,0,.55,0,.85l0,.93a15.5,15.5,0,0,0,2.11,6.83,10.54,10.54,0,0,0,2.34,2.72,7.11,7.11,0,0,0,.62.46l-.23,0a5.14,5.14,0,0,1-1.79-.61,3.34,3.34,0,0,0,1.06,1.88,5.26,5.26,0,0,0,.89.66c.16.08.33.17.5.24l.53.21a7.39,7.39,0,0,0,2.08.32,10.26,10.26,0,0,0,2-.17c.31-.05.59-.11.91-.18a7.41,7.41,0,0,0,1-.27,5.19,5.19,0,0,0,1.05-.49l.25-.17a2.47,2.47,0,0,0,.27-.21l.08-.08,0,0h0l0,0h0L196,413c.07-.08.15-.15.22-.24a3.16,3.16,0,0,0,.71-2.2,2.83,2.83,0,0,0-.25-1,23.83,23.83,0,0,0,2.14,1.55c-1-2.09-2.26-4-3.31-5.86-.27-.47-.53-.94-.77-1.4l-.19-.37-.17-.34c-.12-.24-.23-.48-.34-.72a20.6,20.6,0,0,1-1.11-2.88,16.08,16.08,0,0,1-.62-3l0-.35,0-.42c0-.22,0-.5,0-.75,0-.51,0-1,.09-1.55a32.1,32.1,0,0,1,.53-3.24c.12-.55.23-1.11.34-1.67l.09-.37.41.11a51.91,51.91,0,0,0,8.42,15.93c1.85,2.4,3.86,4.6,5.44,7a16.57,16.57,0,0,1,1.92,3.71,11.23,11.23,0,0,1,.52,2l0,.06v0h0l0,.11,0,.27,0,.28,0,.24c0,.31,0,.66.06,1,0,1.39-.1,2.84-.17,4.36a20.41,20.41,0,0,0,.18,4.78,17.1,17.1,0,0,0,1.6,4.59c.36.71.75,1.39,1.15,2l.31.49.15.24.1.16.08.11.62.93c3.64,5.14,8.28,9.1,12.91,12.91l7,5.64,1.76,1.38.45.34.46.33.94.67c.62.43,1.24.9,1.87,1.31l1.88,1.25c5,3.29,10.22,6.28,15.44,9.17s10.51,5.69,15.78,8.47S283.29,483.7,288.45,486.72Z"/><path class="cls-11" d="M273.44,476.9c5.09,3.11,10.18,6.28,15,9.82-5.16-3-10.46-5.75-15.73-8.54s-10.55-5.58-15.78-8.47-10.41-5.88-15.44-9.17l-1.88-1.25c-.63-.41-1.25-.88-1.87-1.31l-.94-.67-.46-.33-.45-.34-1.76-1.38-7-5.64c-4.63-3.81-9.27-7.77-12.91-12.91l-.62-.93-.08-.11-.1-.16-.15-.24-.31-.49c-.4-.66-.79-1.34-1.15-2a17.1,17.1,0,0,1-1.6-4.59,20.41,20.41,0,0,1-.18-4.78c.07-1.52.2-3,.17-4.36,0-.35,0-.7-.06-1l0-.24,0-.28,0-.27,0-.11h0v0l0-.06a11.23,11.23,0,0,0-.52-2,16.57,16.57,0,0,0-1.92-3.71c-1.58-2.39-3.59-4.59-5.44-7a51.91,51.91,0,0,1-8.42-15.93,58.36,58.36,0,0,0,9.54,15c1.94,2.22,4.09,4.31,5.92,6.79a19.23,19.23,0,0,1,2.33,4.05,13.73,13.73,0,0,1,.72,2.28l0,.15,0,.17.05.27,0,.28,0,.3c.06.42.08.81.12,1.2.09,1.57,0,3.1,0,4.56a18.47,18.47,0,0,0,.27,4.19,20.87,20.87,0,0,0,3.75,7.47c.21.31.43.57.65.85s.42.56.66.83c.47.55.92,1.11,1.42,1.63,1,1.08,2,2.1,3.06,3.11,2.13,2,4.38,3.9,6.68,5.78l3.46,2.81,1.74,1.42.87.71.44.37.18.15.22.18c1.17.92,2.33,1.88,3.51,2.7.59.43,1.16.87,1.77,1.28l1.82,1.26c4.89,3.31,10,6.42,15.05,9.5S268.34,473.79,273.44,476.9Z"/><path class="cls-11" d="M281.71,223.1a73.34,73.34,0,0,0-16.79,6.33l-1.57.87-.79.44-.76.47-1.53.94-1.48,1c-.5.33-1,.69-1.45,1.05s-1,.71-1.39,1.1-.92.75-1.33,1.16l-.63.6c-.2.2-.44.4-.6.6l-.53.59c-.09.1-.18.19-.27.31l-.27.37-.48.67-.48.77c-.63,1-1.22,2.07-1.79,3.12a41.71,41.71,0,0,0-2.58,5.77l-.7.11-1.29.21-1-.29,0-.1a42.16,42.16,0,0,1,3-7c.59-1.12,1.21-2.21,1.86-3.28l.48-.81,0-.05,0,0h0l.06-.09.07-.09.13-.19.27-.38.27-.37c.08-.12.22-.26.32-.39l.69-.78a9.58,9.58,0,0,1,.69-.72l.7-.67a8.8,8.8,0,0,1,.72-.65l.73-.62c.47-.43,1-.8,1.49-1.19s1-.77,1.53-1.12l1.56-1.08,1.61-1,.8-.5.82-.46,1.65-.92a74,74,0,0,1,12.6-5.2C278,222.06,279.86,222.56,281.71,223.1Z"/><path class="cls-11" d="M267,353.47h.88l.34,0a12.06,12.06,0,0,0,3-.75,41.21,41.21,0,0,1,6.44-2.33l-.08,0c-2.06,1-3.74,2.46-5.74,3.62a11.9,11.9,0,0,1-3.32,1.36l-.48.09-.24,0-.21,0-.42,0h-.53a2.38,2.38,0,0,1-1.33-.35l-.11-.09-.05,0,0,0h0l0,0h0L265,355a2.56,2.56,0,0,1-.26-.34,3,3,0,0,1-.28-.66,4.47,4.47,0,0,1-.12-.54l-.07-.42-.14-.84-.28-1.68-.52-3.36c-.33-2.24-.64-4.49-.91-6.74-.17-1.37-.33-2.73-.48-4.1l.44-.23A18.65,18.65,0,0,0,264,335l.66-.09c.24,1.7.47,3.41.68,5.12q.42,3.38.77,6.76l.32,3.38.27,3.24h0l-.15,0h0a0,0,0,0,0,0,0l0,.07c0,.09-.07.14-.08.18l0,0h0l0,0h0l0,0a.06.06,0,0,0,0,0h0l.14-.09.14-.07h0v-.05H267Z"/><path class="cls-11" d="M266.73,353.44v.05h0l-.14.07-.14.09s.05-.09.08-.18l0-.07a0,0,0,0,1,0,0h0Z"/><path class="cls-11" d="M266.4,353.69h0l0,0Z"/><path class="cls-11" d="M264.49,333.67c.07.42.13.84.19,1.26L264,335l-2.35-1c.08.77.16,1.53.25,2.3a12.29,12.29,0,0,1-1.41.58,12.65,12.65,0,0,1-3.93.63c-.3,0-.6,0-.9,0l-.46,0-.42,0c-.59,0-1.16-.09-1.74-.15-1.15-.13-2.29-.29-3.43-.5a37.44,37.44,0,0,1-6.24-1.63l.06-.11c2.13.18,4.23.26,6.34.29,1.12,0,2.25,0,3.37,0,.56,0,1.12,0,1.67-.06l.42,0,.41,0,.8-.07a10.87,10.87,0,0,0,3.14-.77,12.27,12.27,0,0,0,2.74-1.67l1.81-1.41Z"/><path class="cls-11" d="M261.67,334l2.35,1a18.65,18.65,0,0,1-1.66,1.05l-.44.23C261.83,335.53,261.75,334.77,261.67,334Z"/><path class="cls-11" d="M253,307.58a31.62,31.62,0,0,1-.73,7.52,42.68,42.68,0,0,1-2.27,7.14,140.52,140.52,0,0,1-6.57,12.82h0c2-4.34,4.23-8.61,5.82-13.1a35.55,35.55,0,0,0,2.32-14.31c-.14-2.44-.4-4.87-.72-7.29s-.74-4.82-1.25-7.2c-.1-.43-.19-.85-.29-1.27a1.54,1.54,0,0,0,.08-.19,15,15,0,0,0,1-4c.43,1.69.79,3.39,1.11,5.09.45,2.45.8,4.92,1.05,7.39.13,1.24.22,2.48.31,3.71l.1,1.87,0,.92v.94Z"/><path class="cls-11" d="M250.44,287.24c0,.15,0,.29-.05.42l-.06-.26Z"/><path class="cls-11" d="M250.33,287.4l.06.26a15,15,0,0,1-1,4,1.54,1.54,0,0,1-.08.19c-.16-.72-.34-1.43-.52-2.14C249.27,289,249.77,288.18,250.33,287.4Z"/><path class="cls-11" d="M249.81,285.47c.18.64.35,1.28.52,1.93-.56.78-1.06,1.57-1.55,2.35-.32-1.23-.66-2.44-1-3.65-.19-.58-.36-1.16-.56-1.73l-.59-1.75c-.2-.57-.37-1.19-.56-1.79s-.34-1.21-.5-1.82a102.39,102.39,0,0,1-2.28-14.7l-.21-1.83-.11-.91-.05-.46,0-.49-.08-.92c0-.3,0-.65,0-1s0-.67,0-1l0-1A29.11,29.11,0,0,1,244,249.3l1,.29c.63,0,1.26,0,1.9,0-.06.14-.11.29-.16.44a27.34,27.34,0,0,0-1.29,6.86c0,.58,0,1.16,0,1.72,0,.28,0,.55,0,.85l.06.92,0,.46,0,.42.1.93.18,1.84a104.48,104.48,0,0,0,1.94,14.42c.14.58.28,1.17.43,1.75s.31,1.13.5,1.73l.54,1.76C249.47,284.26,249.63,284.87,249.81,285.47Z"/><path class="cls-11" d="M248.78,289.75c.18.71.36,1.42.52,2.14a10.15,10.15,0,0,1-2.62,3.73l-.52.41-.24.17-.23.15a6.86,6.86,0,0,1-1.14.59,7.53,7.53,0,0,1-2.42.55,6.63,6.63,0,0,1-4.54-1.33,10.71,10.71,0,0,0,4.33-.21,9,9,0,0,0,1.87-.73,8.16,8.16,0,0,0,.82-.51l.23-.16.2-.16.36-.3A15.57,15.57,0,0,0,248,291C248.27,290.56,248.53,290.16,248.78,289.75Z"/><path class="cls-11" d="M247,249.27l-.09.3c-.64,0-1.27,0-1.9,0l1.29-.21Z"/><path class="cls-11" d="M243.45,335.06l-.06.11h0l0-.1Z"/><path class="cls-11" d="M243.42,335.06l0,.1L243,335Z"/><path class="cls-11" d="M243.39,335.17l-.13.25c0-.09.07-.17.11-.26Z"/><path class="cls-11" d="M230.66,474.38c4.4,6.41,8.46,13,12.58,19.6-4.63-6.22-9.08-12.58-13.77-18.74-2.34-3.07-4.75-6.1-7.24-9a99.51,99.51,0,0,0-7.9-8.38l-.52-.49-.53-.47-1.07-.93c-.68-.63-1.48-1.21-2.23-1.81-1.47-1.16-3.09-2.25-4.67-3.32-3.2-2.14-6.49-4.19-9.72-6.4-1.62-1.1-3.21-2.26-4.78-3.45-.76-.63-1.55-1.23-2.3-1.89-.37-.33-.75-.64-1.12-1l-1.09-1c-.37-.34-.72-.7-1.06-1.06s-.7-.71-1-1.1c-.67-.77-1.39-1.56-1.93-2.33l-.44-.57-.46-.61c-.26-.36-.55-.72-.84-1.08-.59-.72-1.23-1.44-1.87-2.19s-1.28-1.54-1.88-2.4a15.56,15.56,0,0,1-.85-1.36l-.19-.36-.2-.4a7.81,7.81,0,0,1-.31-.72l-.09-.21-.06-.19-.12-.36-.24-.72c-.18-.47-.29-1-.43-1.46s-.25-1-.36-1.49-.2-1-.29-1.5a37.26,37.26,0,0,1-.45-6c0-2,.09-3.94.16-5.87s.15-3.85.15-5.74v-1.81a1.69,1.69,0,0,0,0-.25v-.12l0-.13c0-.09,0-.18-.05-.27a8.17,8.17,0,0,0-1-2.23,12.25,12.25,0,0,0-1.59-2.07,10.16,10.16,0,0,0-.95-.91c-.16-.15-.32-.26-.48-.39a2.37,2.37,0,0,0-.27-.2l-.3-.21-.56-.36-.6-.39-1.23-.75L164,387.7a39.85,39.85,0,0,1-4.9-3.48l-.6-.56-.51-.52-.06-.06,0,0-.06-.08-.14-.17c-.09-.11-.19-.22-.27-.33s-.33-.47-.47-.7a13.64,13.64,0,0,1-1.26-2.91c-.62-2-.94-3.9-1.34-5.76-.1-.47-.19-.9-.32-1.39s-.25-.89-.39-1.34c-.27-.89-.6-1.77-1-2.64-.74-1.72-1.66-3.41-2.59-5.1l-.7-1.28a7.39,7.39,0,0,0-.74-1.11c-.28-.36-.59-.72-.91-1.1-.16-.19-.32-.38-.48-.59l-.22-.3-.21-.26a5.62,5.62,0,0,0-2.08-1.57,8.94,8.94,0,0,0-1.26-.44c.66,0,1.33,0,2,.06a6.05,6.05,0,0,1,2,1.41l.26.27.23.28c.15.18.32.35.48.53.33.34.68.69,1,1.06a8.2,8.2,0,0,1,.89,1.21L151,362a56.37,56.37,0,0,1,2.91,5.09,29.12,29.12,0,0,1,2,5.56c.49,1.9.89,3.79,1.52,5.54a12.24,12.24,0,0,0,1.15,2.45c.12.18.25.35.37.52l.21.24.19.21.53.5.49.43a39.69,39.69,0,0,0,4.71,3.13l2.51,1.45,1.27.73.63.38.66.41.62.41c.22.17.45.34.65.51a11.66,11.66,0,0,1,1.16,1.06,15.16,15.16,0,0,1,2,2.45,10.56,10.56,0,0,1,1.37,3c0,.14.06.3.1.44a3.47,3.47,0,0,1,.06.45,3.89,3.89,0,0,1,0,.47v.37l0,1.45c0,2,0,3.94-.06,5.88a58.2,58.2,0,0,0,.36,11.33c.08.45.15.91.27,1.35s.19.9.33,1.34.24.89.39,1.33l.23.65.11.33,0,.16h0v0l0,.09a16.69,16.69,0,0,0,2.95,4.43c.62.72,1.26,1.45,1.9,2.23.32.39.64.79,1,1.21l.41.57.44.57c.58.81,1.19,1.46,1.77,2.15.3.35.64.68,1,1s.64.68,1,1l1,1,1.06.94c.7.63,1.45,1.21,2.18,1.82q2.24,1.75,4.6,3.41c3.14,2.21,6.39,4.31,9.59,6.56,1.61,1.14,3.19,2.24,4.74,3.54.75.62,1.51,1.19,2.24,1.9l1.11,1,.55.51c.18.17.34.35.52.53a92.71,92.71,0,0,1,7.79,8.82C226.15,468,228.45,471.17,230.66,474.38Z"/><path class="cls-11" d="M225.8,355.5a5.55,5.55,0,0,1-1.56,2.75l-.21.23c-.08-.3-.18-.59-.28-.88A6.05,6.05,0,0,0,225.8,355.5Z"/><path class="cls-11" d="M224,358.48a18.4,18.4,0,0,1-1.41,13.12c-.14.27-.28.54-.44.81s-.3.54-.47.8c-.35.51-.68,1-1.08,1.52s-.8.95-1.21,1.42a18.32,18.32,0,0,1-1.35,1.29,33.37,33.37,0,0,1-6,4.06,56.76,56.76,0,0,1-13.27,5.29c-1.74.44-3.51.81-5.29,1.08l0,0a1.17,1.17,0,0,1,.27-.37.8.8,0,0,1,.21-.15l.14-.06.1,0-.1,0H194a1.36,1.36,0,0,0-.29.06,1.79,1.79,0,0,0-.49.28,2.91,2.91,0,0,0-.43.43,47,47,0,0,1-6.37.45c-.57,0-1.13,0-1.7,0a112.7,112.7,0,0,0,13.42-3.85,87.15,87.15,0,0,0,12.52-5.66,39.59,39.59,0,0,0,5.66-3.62c.43-.35.82-.67,1.23-1.06s.78-.75,1.12-1.16.7-.83,1-1.25c.17-.22.31-.45.47-.67a7.26,7.26,0,0,0,.45-.68,20.76,20.76,0,0,0,2.58-6.08,22.78,22.78,0,0,0,.56-3.32c0-.57.09-1.14.08-1.7,0-.2,0-.41,0-.62Z"/><path class="cls-11" d="M224,358.48l-.23.24c0-.37,0-.75-.05-1.12h0C223.85,357.89,224,358.18,224,358.48Z"/><path class="cls-11" d="M223.75,357.6c0,.37,0,.75.05,1.12-.61.63-1.23,1.24-1.9,1.81a33.25,33.25,0,0,1-5.33,3.84,36.88,36.88,0,0,1-12.42,4.53c-.55.09-1.1.16-1.65.24s-1.12.12-1.68.18-1.09.05-1.63.08-1.11,0-1.66,0a24,24,0,0,0-3,.13,10.06,10.06,0,0,0-2.71.76,18.34,18.34,0,0,0-4.95,3.39,25.21,25.21,0,0,0-2.38,2.56,14.08,14.08,0,0,0-.07-1.45,17.16,17.16,0,0,1,1.38-2.09,16.88,16.88,0,0,1,5-4.51,11.6,11.6,0,0,1,3.31-1.25,22.66,22.66,0,0,1,3.38-.37c.53,0,1.08-.05,1.56-.1s1.09-.07,1.59-.13l1.51-.19,1.54-.23a48.46,48.46,0,0,0,11.83-3.68,50.62,50.62,0,0,0,5.54-2.93c.9-.54,1.78-1.13,2.66-1.72Z"/><polygon class="cls-11" points="223.75 357.59 223.75 357.6 223.75 357.6 223.75 357.59"/><path class="cls-11" d="M194.56,411.1h0l.11,0a2.16,2.16,0,0,0,.85-.77,3,3,0,0,0,.33-.65,3.59,3.59,0,0,0,.12-.39c0-.06,0-.12,0-.19.22.19.45.39.69.57a2.83,2.83,0,0,1,.25,1,3.16,3.16,0,0,1-.71,2.2c-.07.09-.15.16-.22.24l-.06.06h0l0,0h0l0,0-.08.08a2.47,2.47,0,0,1-.27.21l-.25.17a5.19,5.19,0,0,1-1.05.49,7.41,7.41,0,0,1-1,.27c-.32.07-.6.13-.91.18a10.26,10.26,0,0,1-2,.17,7.39,7.39,0,0,1-2.08-.32l-.53-.21c-.17-.07-.34-.16-.5-.24a5.26,5.26,0,0,1-.89-.66,3.34,3.34,0,0,1-1.06-1.88,5.14,5.14,0,0,0,1.79.61l.23,0a7.38,7.38,0,0,0,2.46,1.12c-.35-.36-.67-.73-1-1.1a31.29,31.29,0,0,0,3.1-.48l.87-.13.77-.11c.23,0,.44-.08.62-.13l.13,0,.09,0,.11,0h0l0,0Z"/><path class="cls-11" d="M198.86,411.16a23.83,23.83,0,0,1-2.14-1.55,2.1,2.1,0,0,0-.68-.82,2.18,2.18,0,0,1,0,.25h0a22.94,22.94,0,0,1-2.42-2.41c-.38-.44-.75-.91-1.1-1.39l-.24-.35-.26-.38c-.16-.25-.31-.51-.47-.77a16.62,16.62,0,0,1-1.45-3.34,12.93,12.93,0,0,1-.56-3.69v-.5l0-.42v-.25l0-.24c0-.16,0-.31.07-.46a12.2,12.2,0,0,1,.42-1.81,15.73,15.73,0,0,1,1.46-3.26,17.37,17.37,0,0,1,.95-1.46,3.43,3.43,0,0,1,.24-.33l.74-.11a3.39,3.39,0,0,0-.15.41l-.09.37c-.11.56-.22,1.12-.34,1.67a32.1,32.1,0,0,0-.53,3.24c-.05.52-.09,1-.09,1.55,0,.25,0,.53,0,.75l0,.42,0,.35a16.08,16.08,0,0,0,.62,3,20.6,20.6,0,0,0,1.11,2.88c.11.24.22.48.34.72l.17.34.19.37c.24.46.5.93.77,1.4C196.6,407.19,197.84,409.07,198.86,411.16Z"/><path class="cls-11" d="M196,408.79a2.1,2.1,0,0,1,.68.82c-.24-.18-.47-.38-.69-.57h0A2.18,2.18,0,0,0,196,408.79Z"/><path class="cls-2" d="M194.58,411.08h0l-.11,0-.09,0-.13,0c-.18.05-.39.09-.62.13l-.77.11-.87.13a31.29,31.29,0,0,1-3.1.48,15,15,0,0,1-2.33-4.2,23.38,23.38,0,0,1-1.25-6l-.05-.75,0-.82v-.16h0v-1.36q0-1.59.18-3.21c.19-2.15.57-4.32,1-6.63v-.44a47,47,0,0,0,6.37-.45,3.43,3.43,0,0,0-.24.33,17.37,17.37,0,0,0-.95,1.46,15.73,15.73,0,0,0-1.46,3.26,12.2,12.2,0,0,0-.42,1.81c0,.15,0,.3-.07.46l0,.24v.25l0,.42v.5a12.93,12.93,0,0,0,.56,3.69,16.62,16.62,0,0,0,1.45,3.34c.16.26.31.52.47.77l.26.38.24.35c.35.48.72.95,1.1,1.39A22.94,22.94,0,0,0,196,409c0,.07,0,.13,0,.19a3.59,3.59,0,0,1-.12.39,3,3,0,0,1-.33.65,2.16,2.16,0,0,1-.85.77l-.11,0h0Z"/><polygon class="cls-11" points="194.56 411.1 194.56 411.1 194.56 411.1 194.56 411.1"/><path class="cls-11" d="M194.22,387.22l-.1,0-.14.06a.8.8,0,0,0-.21.15,1.17,1.17,0,0,0-.27.37l0,0-.74.11a2.91,2.91,0,0,1,.43-.43,1.79,1.79,0,0,1,.49-.28,1.36,1.36,0,0,1,.29-.06h.17Z"/><path class="cls-11" d="M188.86,412.06c.3.37.62.74,1,1.1a7.38,7.38,0,0,1-2.46-1.12,6.37,6.37,0,0,0,1.37,0Z"/><path class="cls-11" d="M188.86,412.06h-.12a6.37,6.37,0,0,1-1.37,0,7.11,7.11,0,0,1-.62-.46,10.54,10.54,0,0,1-2.34-2.72A15.5,15.5,0,0,1,182.3,402l0-.93c0-.3,0-.56,0-.85V400l0-.22,0-.44c0-.3,0-.59.08-.89a21.34,21.34,0,0,1,.71-3.45,16.86,16.86,0,0,1,3.27-6.14c-.41,2.31-.79,4.48-1,6.63q-.15,1.62-.18,3.21v1.36h0v.16l0,.82.05.75a23.38,23.38,0,0,0,1.25,6A15,15,0,0,0,188.86,412.06Z"/><path class="cls-11" d="M184.42,374.83a14.08,14.08,0,0,1,.07,1.45l-.47.6c-.06-.3-.12-.61-.2-.9C184,375.59,184.21,375.21,184.42,374.83Z"/><path class="cls-11" d="M184.49,376.28a15.48,15.48,0,0,1-.21,2.55c-.06-.66-.15-1.31-.26-1.95Z"/><path class="cls-11" d="M168.16,358.57h0l-.4-.15-.79-.31a31.11,31.11,0,0,0-6.82-1.48c-2.35-.28-4.76-.4-7.18-.46s-4.87-.08-7.33-.12h-.18a4.4,4.4,0,0,0-.5-.21,9.59,9.59,0,0,0-2.85-.54,14.77,14.77,0,0,0-1.63,0c4.14-.59,8.25-1.2,12.46-1.47a55.2,55.2,0,0,1,7.5,0,28.94,28.94,0,0,1,7.55,1.48l.92.36.46.18,0,0h0l.06,0h0l.1.05.21.1.83.4.41.2.43.25c.57.33,1.18.64,1.7,1s1.08.7,1.59,1.1a27.32,27.32,0,0,1,5.47,5.43,22.14,22.14,0,0,1,3.51,6.85,17.26,17.26,0,0,1,.68,3.55c-.21.38-.41.76-.6,1.15a19.79,19.79,0,0,0-1.46-4.19,23.9,23.9,0,0,0-4-5.88,29.44,29.44,0,0,0-5.3-4.61c-.47-.34-1-.63-1.48-.94s-1-.56-1.49-.84l-.38-.21-.41-.19-.84-.39-.2-.1-.11-.05h0Z"/><path class="cls-11" d="M183.82,376c.08.29.14.6.2.9-.41.53-.8,1.09-1.17,1.66A16.84,16.84,0,0,1,183.82,376Z"/><path class="cls-11" d="M177.93,421.63h0Z"/><path class="cls-11" d="M177.93,421.62h0Z"/><path class="cls-11" d="M168.19,358.58Z"/><polygon class="cls-11" points="168.19 358.58 168.19 358.58 168.19 358.58 168.19 358.58"/><path class="cls-11" d="M144.93,355.82a4.4,4.4,0,0,1,.5.21c-.66,0-1.33,0-2-.06a12.81,12.81,0,0,0-1.4-.26,20.24,20.24,0,0,0-3.4-.07l-.42,0,2.23-.31a14.77,14.77,0,0,1,1.63,0A9.59,9.59,0,0,1,144.93,355.82Z"/><path class="cls-11" d="M143.44,356c-.51,0-1,0-1.52-.06l-1.86-.13-1.42-.14a20.24,20.24,0,0,1,3.4.07A12.81,12.81,0,0,1,143.44,356Z"/><path class="cls-11" d="M140.45,355.29l-2.23.31.42,0c-.76.05-1.54.13-2.31.22A28.75,28.75,0,0,1,140.45,355.29Z"/><text class="cls-13" transform="translate(288.45 113.13)"><tspan class="cls-14">L</tspan><tspan x="26.12" y="0">OGO成品</tspan></text></svg>