<svg id="圖層_1" data-name="圖層 1" xmlns="http://www.w3.org/2000/svg" viewBox="0 0 841.89 595.28"><defs><style>.cls-1{fill:#cbe4c1;}.cls-2{font-size:29.86px;}.cls-10,.cls-11,.cls-12,.cls-13,.cls-14,.cls-15,.cls-16,.cls-17,.cls-18,.cls-19,.cls-2,.cls-20,.cls-25,.cls-26,.cls-27,.cls-3,.cls-4,.cls-6,.cls-7,.cls-8,.cls-9{fill:#231815;}.cls-10,.cls-17,.cls-18,.cls-19,.cls-2,.cls-20,.cls-25,.cls-3,.cls-4,.cls-6,.cls-7,.cls-8,.cls-9{font-family:MicrosoftJhengHeiRegular, Microsoft JhengHei;}.cls-3{font-size:19.77px;}.cls-4{font-size:18.94px;}.cls-5{fill:none;stroke:#231815;stroke-miterlimit:10;stroke-width:5px;}.cls-6{font-size:26.76px;}.cls-7{font-size:16.72px;}.cls-8{font-size:27.26px;}.cls-9{font-size:14.91px;}.cls-10{font-size:22.78px;}.cls-11{font-size:33.85px;font-family:NiagaraEngraved-Reg, Niagara Engraved;}.cls-12{font-size:32.58px;font-family:Exotic350BT-DemiBold, Exotc350 DmBd BT;font-weight:700;}.cls-13{font-size:26.16px;font-family:LucidaCalligraphy-Italic, Lucida Calligraphy;font-style:italic;}.cls-14{font-size:35.05px;font-family:KunstlerScript, Kunstler Script;}.cls-15{font-size:27.31px;font-family:EmbassyBT-Regular, Embassy BT;}.cls-16{font-size:29.83px;font-family:MonotypeCorsiva, Monotype Corsiva;}.cls-17{font-size:21.5px;}.cls-18{font-size:17.66px;}.cls-19{font-size:13.17px;}.cls-20{font-size:13.44px;}.cls-21{fill:#5ab53d;}.cls-22{fill:#4fb34b;}.cls-23{fill:#b7d040;}.cls-24{fill:#322f14;}.cls-25{font-size:29.58px;}.cls-26{font-size:12px;}.cls-26,.cls-27{font-family:AdobeMingStd-Light-B5pc-H, Adobe Ming Std;}.cls-27{font-size:17.48px;}</style></defs><title>工作區域 2</title><ellipse class="cls-1" cx="424.53" cy="460.43" rx="117.72" ry="47.3"/><ellipse class="cls-1" cx="672.74" cy="133.47" rx="78.38" ry="31.49"/><text class="cls-2" transform="translate(395.77 441.93)">形象</text><text class="cls-3" transform="translate(357.55 468.39)">希臘神 克羅莉絲</text><text class="cls-4" transform="translate(351.73 499.81)">掌管春和花之女神</text><line class="cls-5" x1="233.76" y1="146.65" x2="362.5" y2="240.47"/><line class="cls-5" x1="419.56" y1="108.91" x2="419.56" y2="198.54"/><line class="cls-5" x1="229.15" y1="382.67" x2="367.11" y2="303.02"/><ellipse class="cls-1" cx="168.35" cy="414.78" rx="110.04" ry="44.22"/><ellipse class="cls-1" cx="171.49" cy="129.93" rx="90.26" ry="36.26"/><text class="cls-6" transform="translate(136.66 403.62) scale(1.12 1)">類型</text><ellipse class="cls-1" cx="420.94" cy="72.64" rx="90.26" ry="36.26"/><line class="cls-5" x1="481.94" y1="298.06" x2="627.36" y2="363.09"/><text class="cls-7" transform="translate(75.83 427.91)">歐風 質感 典雅 氛圍 中高價位</text><line class="cls-5" x1="424.53" y1="328.41" x2="424.53" y2="414.92"/><ellipse class="cls-1" cx="678.68" cy="401.9" rx="111.9" ry="44.96"/><text class="cls-8" transform="translate(647.8 389) scale(0.88 1)">代表物</text><line class="cls-5" x1="476.62" y1="239.71" x2="606.46" y2="147.41"/><ellipse class="cls-1" cx="424.53" cy="277.53" rx="91.59" ry="83.65"/><text class="cls-9" transform="translate(370.78 342.85)">希臘風 下午茶店</text><text class="cls-10" transform="translate(123.99 126.29)">主打族群</text><text class="cls-11" transform="translate(435.16 235.63)">Cloris</text><text class="cls-12" transform="translate(435.16 297.99)">Cloris</text><text class="cls-13" transform="translate(435.16 264.73)">Cloris</text><text class="cls-14" transform="translate(344.16 297.99)">Cloris</text><text class="cls-15" transform="translate(344.16 260.09)">Cloris</text><text class="cls-16" transform="translate(344.16 226.93)">Cloris</text><text class="cls-17" transform="translate(114.64 154.75)">20-40 女性</text><text class="cls-18" transform="translate(646.01 120.49)">代表色</text><text class="cls-19" transform="translate(633.53 135.49)">主色:黃綠色</text><text class="cls-20" transform="translate(633.53 155.57)">輔色:</text><circle class="cls-21" cx="719.24" cy="131.92" r="11.05"/><circle class="cls-22" cx="678.68" cy="152.2" r="11.05"/><circle class="cls-23" cx="704.93" cy="152.2" r="11.05"/><circle class="cls-24" cx="733.86" cy="152.2" r="11.05"/><text class="cls-25" transform="translate(626.44 436.93) scale(0.88 1)">稻 麥 嫩芽</text><text class="cls-26" transform="translate(740.65 135.49)">#41D12E</text><text class="cls-26" transform="translate(618.56 181.72)">#2DCD45</text><text class="cls-26" transform="translate(684 181.72)">#BFD93A</text><text class="cls-26" transform="translate(757.85 181.72)">#332F0A</text><text class="cls-27" transform="translate(357.55 62.81)">LOGO設計概念</text><text class="cls-26" transform="translate(359.23 76.37)">女神側臉剪影 <tspan x="0" y="14.4">簡單曲線、線條</tspan><tspan x="0" y="28.8">手持嫩苗、茶苗</tspan></text></svg>